<svg width="14" height="9" viewBox="0 0 14 9" fill="black" xmlns="http://www.w3.org/2000/svg">
<path d="M7.00025 8.99959C6.82477 9.00061 6.65082 8.96698 6.48837 8.90062C6.32592 8.83427 6.17817 8.7365 6.05358 8.61293L0.720247 3.2796C0.469176 3.02852 0.328125 2.688 0.328125 2.33293C0.328125 1.97786 0.469176 1.63733 0.720247 1.38626C0.971319 1.13519 1.31185 0.994141 1.66691 0.994141C2.02198 0.994141 2.36251 1.13519 2.61358 1.38626L7.00025 5.78626L11.3869 1.3996C11.642 1.18116 11.9701 1.06702 12.3057 1.07998C12.6412 1.09294 12.9595 1.23205 13.197 1.46951C13.4345 1.70697 13.5736 2.02529 13.5865 2.36086C13.5995 2.69643 13.4853 3.02453 13.2669 3.2796L7.93358 8.61293C7.68523 8.85925 7.35003 8.99812 7.00025 8.99959Z" fill="black"/>
</svg>
